<?xml version="1.0" standalone="no"?>
<!DOCTYPE svg PUBLIC "-//W3C//DTD SVG 20010904//EN"
 "http://www.w3.org/TR/2001/REC-SVG-20010904/DTD/svg10.dtd">
<svg version="1.0" xmlns="http://www.w3.org/2000/svg"
 width="1200.000000pt" height="1200.000000pt" viewBox="0 0 1200.000000 1200.000000"
 preserveAspectRatio="xMidYMid meet">

<g transform="translate(0.000000,1200.000000) scale(0.100000,-0.100000)"
fill="#000000" stroke="none">
<path d="M1190 6000 l0 -4810 4810 0 4810 0 0 4810 0 4810 -4810 0 -4810 0 0
-4810z m9360 0 l0 -4550 -4550 0 -4550 0 0 4550 0 4550 4550 0 4550 0 0 -4550z"/>
<path d="M5462 6763 l3 -138 153 -3 152 -3 0 -362 c0 -199 3 -387 6 -417 17
-192 89 -304 239 -372 94 -42 353 -34 466 15 l27 12 -34 115 c-19 63 -36 120
-38 126 -3 8 -19 8 -57 -2 -108 -28 -183 -10 -226 55 l-23 34 0 538 0 539
-335 0 -336 0 3 -137z"/>
<path d="M4645 6510 c-142 -22 -361 -110 -350 -139 4 -9 31 -62 61 -118 l55
-103 37 19 c94 47 165 65 262 65 108 1 150 -15 182 -71 l19 -31 -73 -7 c-370
-33 -541 -123 -579 -303 -29 -143 36 -281 166 -350 46 -25 60 -27 165 -27 107
0 120 2 186 31 40 17 93 45 118 63 26 17 49 31 51 31 2 0 9 -25 15 -55 l11
-55 145 0 144 0 0 328 c0 355 -7 417 -54 510 -51 101 -119 156 -239 194 -73
23 -233 31 -322 18z m265 -654 c0 -60 -2 -66 -29 -85 -58 -42 -114 -61 -179
-61 -54 0 -67 4 -87 25 -29 28 -31 54 -10 94 25 49 130 84 268 90 l37 1 0 -64z"/>
<path d="M7144 6505 c-346 -75 -521 -460 -358 -787 66 -132 196 -227 360 -264
104 -23 280 -15 379 16 79 25 185 76 185 89 0 7 -96 187 -106 199 -1 2 -38 -9
-81 -24 -110 -38 -243 -39 -324 -2 -56 25 -100 70 -114 116 l-6 22 331 0 c303
0 331 1 337 17 12 31 8 217 -6 273 -65 265 -312 407 -597 345z m215 -273 c42
-21 69 -56 77 -99 l7 -33 -182 0 -181 0 10 26 c30 79 97 123 185 124 28 0 65
-8 84 -18z"/>
<path d="M8360 6504 c-193 -41 -345 -188 -395 -381 -18 -67 -20 -200 -4 -275
38 -186 190 -344 375 -392 77 -20 212 -20 284 -1 185 49 328 190 375 370 20
79 20 236 -1 306 -58 196 -204 333 -399 374 -86 18 -150 18 -235 -1z m216
-299 c41 -27 67 -98 72 -198 10 -197 -60 -301 -190 -284 -89 12 -137 85 -145
220 -8 125 26 240 81 269 53 29 132 26 182 -7z"/>
<path d="M3166 6000 c118 -270 214 -498 214 -508 -1 -37 -45 -97 -90 -120 -37
-19 -57 -23 -117 -20 l-72 3 -31 -129 c-17 -71 -28 -131 -26 -133 2 -3 39 -10
81 -16 106 -14 229 2 312 43 76 38 155 121 206 217 29 56 447 1129 447 1149 0
2 -74 4 -164 4 l-165 0 -45 -142 c-25 -79 -70 -228 -101 -333 -31 -104 -60
-201 -64 -215 -7 -22 -10 -18 -25 35 -39 137 -90 291 -154 465 l-68 185 -176
3 -176 2 214 -490z"/>
</g>
</svg>
